<svg xmlns="http://www.w3.org/2000/svg" xmlns:xlink="http://www.w3.org/1999/xlink" viewBox="0 0 333.49 94"><defs><style>.cls-1{fill:url(#linear-gradient);}.cls-2{fill:#7878a0;}</style><linearGradient id="linear-gradient" x1="-58.04" y1="126.13" x2="46.49" y2="126.13" gradientTransform="matrix(1, 0, 0, -1, 287, 173.13)" gradientUnits="userSpaceOnUse"><stop offset="0.04" stop-color="#079cec"/><stop offset="0.37" stop-color="#6b81f9"/><stop offset="1" stop-color="#a881f3"/></linearGradient></defs><g id="Layer_2" data-name="Layer 2"><g id="Layer_1-2" data-name="Layer 1"><path class="cls-1" d="M292.82,2,282.39,16.32a2.09,2.09,0,0,0,1.88,3.31c1.22-.11,2.19-.16,2.64-.16a27.36,27.36,0,0,1,27.32,28.11c-.43,14.89-10.7,14.77-25.59,14.77h-27a3.27,3.27,0,0,1-2.81-5l6.73-14.08a1.18,1.18,0,0,0-2.06-1.09L229.44,89a3.29,3.29,0,0,0,2.82,5H285c26.73,0,48.87-21.63,48.51-48.35A47.79,47.79,0,0,0,297.9.15,4.81,4.81,0,0,0,292.82,2Z"/><path class="cls-2" d="M130.73,75.09,131.79,73a12.64,12.64,0,0,0,8.48,3.12c4.81,0,6.91-2,6.91-4.55,0-7-15.83-2.72-15.83-12.23,0-3.78,2.94-7.05,9.47-7.05a14.49,14.49,0,0,1,8,2.27l-.92,2.17a13.23,13.23,0,0,0-7.05-2.13c-4.7,0-6.79,2.09-6.79,4.66,0,7.06,15.83,2.8,15.83,12.16,0,3.78-3,7-9.59,7C136.42,78.43,132.64,77.07,130.73,75.09Z"/><path class="cls-2" d="M164.73,77a6,6,0,0,1-4,1.36c-3.64,0-5.66-2.06-5.66-5.62V54.68h2.61V58.9h5.84v2.2h-5.84V72.63c0,2.28,1.14,3.53,3.3,3.53a4.28,4.28,0,0,0,2.87-1Z"/><path class="cls-2" d="M166.83,68.56a9.82,9.82,0,1,1,9.84,9.84A9.5,9.5,0,0,1,166.83,68.56Zm17,0c0-4.52-3.05-7.53-7.16-7.53s-7.2,3-7.2,7.53,3.09,7.52,7.2,7.52S183.83,73.07,183.83,68.56Z"/><path class="cls-2" d="M201.54,58.75v2.53c-.22,0-.45,0-.63,0-4,0-6.5,2.57-6.5,7.12v9.84H191.8V58.9h2.5v3.78C195.51,60.11,198,58.75,201.54,58.75Z"/><path class="cls-2" d="M220.23,73.55l1.47,1.69a9.45,9.45,0,0,1-7.42,3.15c-6,0-10.17-4.11-10.17-9.83s4-9.81,9.54-9.81c5.18,0,9.07,3.78,9.26,9.22l-15.86,3.08c.95,3.12,3.67,5,7.27,5A7.5,7.5,0,0,0,220.23,73.55Zm-13.59-5.18a5.23,5.23,0,0,0,0,.81l13.62-2.64A6.55,6.55,0,0,0,213.66,61C209.54,61,206.64,64,206.64,68.37Z"/><path class="cls-2" d="M0,52.69H11.82c8.51,0,14.35,5.13,14.35,13s-5.84,13-14.35,13H0ZM11.52,73.76c5.17,0,8.55-3.08,8.55-8.06s-3.38-8.07-8.55-8.07H6V73.76Z"/><path class="cls-2" d="M50.57,58.71v20H45V76.4A7.69,7.69,0,0,1,38.79,79c-5.65,0-10-4-10-10.29s4.35-10.3,10-10.3a7.69,7.69,0,0,1,6,2.42V58.71Zm-5.68,10c0-3.46-2.23-5.54-5.09-5.54s-5.13,2.08-5.13,5.54,2.23,5.53,5.13,5.53S44.89,72.16,44.89,68.71Z"/><path class="cls-2" d="M55.92,72.09v-21h5.8V71.75a2.32,2.32,0,0,0,2.49,2.64A3.7,3.7,0,0,0,65.84,74l.26,4.5a9.52,9.52,0,0,1-3,.48C58.59,79,55.92,76.55,55.92,72.09Z"/><path class="cls-2" d="M83.68,72.42l3.08,3.35C84.9,77.89,82.12,79,78.51,79,71.6,79,67.1,74.65,67.1,68.71s4.54-10.3,10.71-10.3c5.65,0,10.29,3.72,10.33,10.11L73.35,71.38c.85,2,2.71,3,5.31,3A6.79,6.79,0,0,0,83.68,72.42ZM72.79,68.11l9.74-1.89a4.64,4.64,0,0,0-4.72-3.42C74.91,62.8,72.9,64.73,72.79,68.11Z"/><path class="cls-2" d="M107.12,72.42l3.09,3.35C108.35,77.89,105.56,79,102,79,95,79,90.55,74.65,90.55,68.71s4.53-10.3,10.7-10.3c5.65,0,10.29,3.72,10.33,10.11L96.79,71.38c.85,2,2.71,3,5.31,3A6.78,6.78,0,0,0,107.12,72.42ZM96.23,68.11,106,66.22a4.63,4.63,0,0,0-4.72-3.42C98.35,62.8,96.34,64.73,96.23,68.11Z"/><path class="cls-2" d="M115.48,72.09v-21h5.8V71.75a2.31,2.31,0,0,0,2.48,2.64A3.71,3.71,0,0,0,125.4,74l.26,4.5a9.56,9.56,0,0,1-3,.48C118.15,79,115.48,76.55,115.48,72.09Z"/><path class="cls-2" d="M70.12,18.79H66.5a.34.34,0,0,0-.39.39V36.31a3.67,3.67,0,0,1-.72,2.49,3,3,0,0,1-2.36.82h-.85a.34.34,0,0,0-.39.39v3.11a.34.34,0,0,0,.39.39h1.44q6.88,0,6.89-7.12V19.18A.34.34,0,0,0,70.12,18.79Z"/><path class="cls-2" d="M140.06,19.76h-3.62a.34.34,0,0,0-.39.39V28c0,.83,0,1.5-.07,2a3.09,3.09,0,0,1-.33,1.15,1.26,1.26,0,0,1-.8.54,6.44,6.44,0,0,1-1.48.14,3,3,0,0,1-2-.61,2.26,2.26,0,0,1-.74-1.85V21.93a.34.34,0,0,0-.39-.39h-3.62a.34.34,0,0,0-.39.39v6.91a10.89,10.89,0,0,1-.09,1.59,1.64,1.64,0,0,1-.39.88,1.44,1.44,0,0,1-.8.39,8,8,0,0,1-1.36.1c-1.87,0-2.81-.81-2.81-2.42V21.93c0-.26-.12-.39-.38-.39h-3.62a.34.34,0,0,0-.39.39v6.91a5.88,5.88,0,0,1-.32,2.32c-.2.42-.71.64-1.51.64H107.1a3.94,3.94,0,0,1-2.35-.63,2,2,0,0,1-.88-1.79V22a.34.34,0,0,0-.39-.39h-3.34a1.33,1.33,0,0,0-.45.08.29.29,0,0,0-.22.31v6c0,.7,0,1.29,0,1.77a3.61,3.61,0,0,1-.21,1.17,1.25,1.25,0,0,1-.55.66,2.06,2.06,0,0,1-1.07.22H90.75V27.4a12,12,0,0,0-.58-4,6.83,6.83,0,0,0-1.64-2.65A6.41,6.41,0,0,0,86,19.26a10.5,10.5,0,0,0-3.21-.47,9.54,9.54,0,0,0-3,.49,6.59,6.59,0,0,0-2.53,1.56,7.65,7.65,0,0,0-1.75,2.76,11.24,11.24,0,0,0-.66,4.07,11.55,11.55,0,0,0,.52,3.74,6.28,6.28,0,0,0,1.5,2.47,5.48,5.48,0,0,0,2.4,1.36,11.46,11.46,0,0,0,3.25.41h3.93a7.35,7.35,0,0,1-.23,2,2.76,2.76,0,0,1-.67,1.2,2.29,2.29,0,0,1-1.09.61,6.44,6.44,0,0,1-1.55.17H78.33a.34.34,0,0,0-.39.39v3.12a.34.34,0,0,0,.39.38h5.26a7.61,7.61,0,0,0,5.33-1.67c1.22-1.12,1.83-2.89,1.83-5.33v-.86h7.94a8.35,8.35,0,0,0,3-.43,3,3,0,0,0,1.66-1.55,3.08,3.08,0,0,0,1.79,1.61,8.37,8.37,0,0,0,2.64.37h8.13a6.8,6.8,0,0,0,2.82-.47,3.18,3.18,0,0,0,1.58-1.59,3.81,3.81,0,0,0,3.78,2.06h1.71a7.07,7.07,0,0,0,2.78-.45,3.06,3.06,0,0,0,1.58-1.57,3.52,3.52,0,0,0,1.46,1.5,4.75,4.75,0,0,0,2.31.52h1.68a5.22,5.22,0,0,0,3.76-1.11,5.25,5.25,0,0,0,1.11-3.79V20.15A.36.36,0,0,0,140.06,19.76Zm-53.63,12H83a4.12,4.12,0,0,1-2.86-.9c-.66-.59-1-1.71-1-3.35a5.76,5.76,0,0,1,1-3.54,3.25,3.25,0,0,1,2.75-1.32,3.11,3.11,0,0,1,2.72,1.19,5.91,5.91,0,0,1,.86,3.48Z"/><path class="cls-2" d="M189.69,39h-3.27a.34.34,0,0,0-.39.39v3.35a.35.35,0,0,0,.39.39h3.27a.35.35,0,0,0,.39-.39V39.39A.34.34,0,0,0,189.69,39Z"/><path class="cls-2" d="M183.88,39h-3.27a.34.34,0,0,0-.39.39v3.35a.35.35,0,0,0,.39.39h3.27a.35.35,0,0,0,.38-.39V39.39A.34.34,0,0,0,183.88,39Z"/><path class="cls-2" d="M202.86,11.31h-3.62a.34.34,0,0,0-.39.39v18a2.27,2.27,0,0,1-.45,1.62,1.94,1.94,0,0,1-1.42.45h-6.25a4,4,0,0,1-2.36-.63,2.07,2.07,0,0,1-.88-1.79V22a.34.34,0,0,0-.39-.39h-3.34a1.33,1.33,0,0,0-.45.08.3.3,0,0,0-.22.31v6q0,1.05,0,1.77a3.87,3.87,0,0,1-.22,1.17,1.25,1.25,0,0,1-.55.66,2,2,0,0,1-1.06.22H176a3.94,3.94,0,0,1-2.35-.63,2,2,0,0,1-.88-1.79V11.7a.34.34,0,0,0-.39-.39h-3.62a.34.34,0,0,0-.39.39v23A4.83,4.83,0,0,1,167,38.55a5.32,5.32,0,0,1-3.62,1.19,7.32,7.32,0,0,1-1.83-.25,4.56,4.56,0,0,1-1.69-.88A4.75,4.75,0,0,1,158.65,37a6,6,0,0,1-.49-2.55,8.81,8.81,0,0,1,.57-3.21,18,18,0,0,1,1.19-2.55.52.52,0,0,0,.06-.29.31.31,0,0,0-.22-.21l-3.15-1.25c-.29-.13-.48-.1-.59.08a15.36,15.36,0,0,0-1.63,3.62,13.94,13.94,0,0,0-.66,4.2,9.93,9.93,0,0,0,.72,3.94,7.66,7.66,0,0,0,2,2.78,8.36,8.36,0,0,0,3,1.65,12.35,12.35,0,0,0,3.79.55,12.9,12.9,0,0,0,3.9-.55,8.2,8.2,0,0,0,3-1.65,7.3,7.3,0,0,0,1.94-2.78,10.21,10.21,0,0,0,.68-3.9V34.4a3.06,3.06,0,0,0,1.66,1,10.27,10.27,0,0,0,2.2.21h5.66a8.33,8.33,0,0,0,3-.43A3,3,0,0,0,187,33.67a3.1,3.1,0,0,0,1.79,1.61,25,25,0,0,0,4.49.37h5.47a4.45,4.45,0,0,0,3.5-1.19,5.5,5.5,0,0,0,1.05-3.71v-19A.34.34,0,0,0,202.86,11.31Z"/><path class="cls-2" d="M221.06,20.49a7.06,7.06,0,0,0-5-1.7h-6.23a.35.35,0,0,0-.39.39V22.3a.34.34,0,0,0,.39.39h4.67q4,0,4,3.42v2.61a8.39,8.39,0,0,1-.1,1.44,1.84,1.84,0,0,1-.42,1,1.89,1.89,0,0,1-1,.52,7.29,7.29,0,0,1-1.67.16h-7.24a.34.34,0,0,0-.39.39v3.07a.34.34,0,0,0,.39.39h9a9.37,9.37,0,0,0,2.57-.31,3.78,3.78,0,0,0,1.79-1.09,5,5,0,0,0,1.05-2,12.41,12.41,0,0,0,.35-3.21V25.76Q222.91,22.19,221.06,20.49Z"/><path class="cls-2" d="M106.13,13.54h-3.27a.34.34,0,0,0-.39.39v3.35a.34.34,0,0,0,.39.38h3.27a.34.34,0,0,0,.39-.38V13.93A.34.34,0,0,0,106.13,13.54Z"/><path class="cls-2" d="M100.32,13.54H97.05a.34.34,0,0,0-.39.39v3.35a.34.34,0,0,0,.39.38h3.27a.34.34,0,0,0,.38-.38V13.93A.34.34,0,0,0,100.32,13.54Z"/></g></g></svg>